<svg width="60" height="64" viewBox="0 0 60 64" fill="none" xmlns="http://www.w3.org/2000/svg">
<rect y="4" width="60" height="60" rx="4" fill="#5844C1"/>
<rect width="60" height="60" rx="4" fill="url(#paint0_linear_152_2518)"/>
<path d="M18.1238 11.249C17.0959 11.249 16.25 12.0949 16.25 13.1228V33.1228C16.25 33.957 17.5012 33.957 17.5012 33.1228V17.5015H42.4975V33.1228C42.4787 33.9751 43.7667 33.9751 43.7476 33.1228V13.1228C43.7476 12.0949 42.9029 11.249 41.875 11.249H18.1238ZM18.1238 12.5003H41.875C42.2321 12.5003 42.4975 12.7658 42.4975 13.1228V16.2503H17.5012V13.1228C17.5012 12.7658 17.7667 12.5003 18.1238 12.5003ZM19.375 13.7491C19.0298 13.7491 18.75 14.0289 18.75 14.3741C18.75 14.7193 19.0298 14.999 19.375 14.999C19.7202 14.999 20 14.7193 20 14.3741C20 14.0289 19.7202 13.7491 19.375 13.7491ZM21.875 13.7491C21.5298 13.7491 21.25 14.0289 21.25 14.3741C21.25 14.7193 21.5298 14.999 21.875 14.999C22.2202 14.999 22.5 14.7193 22.5 14.3741C22.5 14.0289 22.2202 13.7491 21.875 13.7491ZM24.375 13.7491C24.0298 13.7491 23.75 14.0289 23.75 14.3741C23.75 14.7193 24.0298 14.999 24.375 14.999C24.7202 14.999 25 14.7193 25 14.3741C25 14.0289 24.7202 13.7491 24.375 13.7491ZM33.0933 13.7503C32.2494 13.8077 32.307 15.021 33.1226 15.0003H40.625C41.4401 14.9814 41.4401 13.7684 40.625 13.7503H33.0933ZM13.1274 15.0003C12.0995 15.0003 11.25 15.8449 11.25 16.8729V39.374C11.25 40.402 12.0995 41.2478 13.1274 41.2478H46.8762C47.9041 41.2478 48.75 40.402 48.75 39.374V16.8728C48.75 15.8449 47.9041 15.0002 46.8762 15.0002H45.6262C44.7742 14.9813 44.7742 16.2692 45.6262 16.2503H46.8762C47.2333 16.2503 47.4988 16.5157 47.4988 16.8728V35.0003H12.5V16.8728C12.5 16.5157 12.7704 16.2503 13.1274 16.2503H14.3726C15.2246 16.2692 15.2246 14.9813 14.3726 15.0002L13.1274 15.0003ZM31.8823 19.9893C31.6076 19.9874 31.3639 20.1653 31.2817 20.4276L27.5305 31.6763C27.266 32.4673 28.4526 32.8641 28.717 32.073L32.4683 20.8206C32.6097 20.4159 32.311 19.9921 31.8823 19.9893ZM34.5996 23.6026L37.7734 26.2503L34.5996 28.8943C33.9215 29.4252 34.7588 30.4271 35.4016 29.8538L39.1479 26.73C39.4471 26.4802 39.4471 26.0205 39.1479 25.7706L35.4016 22.6419C35.2896 22.546 35.1474 22.4928 34.9683 22.4931C34.3775 22.5448 34.1633 23.2495 34.5996 23.6026ZM24.9841 22.4942C24.8434 22.4989 24.7083 22.5509 24.6008 22.6419L20.8508 25.7705C20.5517 26.0204 20.5517 26.4801 20.8508 26.7299L24.6008 29.8538C25.2458 30.4545 26.1071 29.4192 25.3992 28.8943L22.2253 26.2502L25.3992 23.6025C25.861 23.2244 25.5807 22.476 24.9841 22.4942ZM12.5 36.2515H47.4988V39.374C47.4988 39.7311 47.2333 39.9966 46.8762 39.9966H13.1274C12.7704 39.9966 12.5 39.7311 12.5 39.374V36.2515ZM31.2842 37.5003L28.7195 37.5015C27.9228 37.5967 27.9763 38.7253 28.7488 38.7466H31.25C32.1083 38.8225 32.1798 37.5175 31.2842 37.5003ZM26.4941 42.449C26.2433 42.4443 26.0135 42.5888 25.9106 42.8176C25.6097 43.4632 25.0705 44.217 24.1394 44.9978H23.125C22.0971 44.9978 21.2524 45.8486 21.2524 46.8765V48.1216C21.2512 48.4668 21.5298 48.7477 21.875 48.749H38.1238C38.4709 48.7503 38.7525 48.4687 38.7512 48.1216V46.8765C38.7512 45.8486 37.9017 44.9978 36.8738 44.9978H35.8606C34.9296 44.217 34.3903 43.4631 34.0894 42.8176C33.9835 42.5828 33.7447 42.437 33.4875 42.4502C33.041 42.4738 32.7622 42.9436 32.9565 43.3463C33.2002 43.8688 33.5722 44.4294 34.0735 44.9978H25.9265C26.4277 44.4294 26.7998 43.8688 27.0435 43.3463C27.2419 42.9364 26.9494 42.4587 26.4941 42.449ZM23.125 46.2491H36.8738C37.2308 46.2491 37.5012 46.5195 37.5012 46.8765V47.4991H22.5024V46.8765C22.5024 46.5195 22.7679 46.2491 23.125 46.2491Z" fill="white"/>
<defs>
<linearGradient id="paint0_linear_152_2518" x1="30" y1="0" x2="30" y2="60" gradientUnits="userSpaceOnUse">
<stop stop-color="#BBB1F2"/>
<stop offset="1" stop-color="#7763E5"/>
</linearGradient>
</defs>
</svg>
