<svg width="60" height="64" viewBox="0 0 60 64" fill="none" xmlns="http://www.w3.org/2000/svg">
<rect y="4" width="60" height="60" rx="4" fill="#9151C4"/>
<rect width="60" height="60" rx="4" fill="url(#paint0_linear_152_2523)"/>
<path d="M36.4312 20.3953C37.5889 20.3953 38.5308 19.5192 38.5308 18.4422C38.5308 17.3653 37.5889 16.489 36.4312 16.489C35.2735 16.489 34.3316 17.3653 34.3316 18.4422C34.3316 18.8821 34.4888 19.2883 34.7536 19.6152L31.3039 24.0996C31.098 24.0367 30.8784 24.0022 30.6501 24.0022C30.0984 24.0022 29.5961 24.2015 29.221 24.5264L26.9216 23.3126C26.9522 23.1801 26.9687 23.0428 26.9687 22.9019C26.9687 21.825 26.0268 20.9488 24.8691 20.9488C23.7114 20.9488 22.7695 21.825 22.7695 22.9019C22.7695 23.0428 22.7859 23.1801 22.8166 23.3126L20.5172 24.5264C20.1421 24.2015 19.6397 24.0023 19.088 24.0023C17.9303 24.0023 16.9884 24.8785 16.9884 25.9555C16.9884 27.0325 17.9303 27.9087 19.088 27.9087C20.2457 27.9087 21.1876 27.0325 21.1876 25.9555C21.1876 25.8146 21.1712 25.6773 21.1405 25.5448L23.4399 24.331C23.815 24.6559 24.3174 24.8552 24.8691 24.8552C25.4208 24.8552 25.9231 24.6559 26.2982 24.3311L28.5976 25.5449C28.567 25.6774 28.5505 25.8147 28.5505 25.9556C28.5505 27.0325 29.4924 27.9088 30.6501 27.9088C31.808 27.9088 32.7498 27.0325 32.7498 25.9556C32.7498 25.5157 32.5925 25.1093 32.3277 24.7825L35.7775 20.298C35.9832 20.3608 36.2029 20.3953 36.4312 20.3953ZM36.4312 17.6609C36.8943 17.6609 37.271 18.0114 37.271 18.4422C37.271 18.873 36.8943 19.2235 36.4312 19.2235C35.9681 19.2235 35.5914 18.873 35.5914 18.4422C35.5913 18.0114 35.968 17.6609 36.4312 17.6609ZM19.0878 26.7367C18.6247 26.7367 18.2479 26.3862 18.2479 25.9553C18.2479 25.5245 18.6247 25.174 19.0878 25.174C19.5509 25.174 19.9276 25.5245 19.9276 25.9553C19.9276 26.3862 19.5509 26.7367 19.0878 26.7367ZM24.8689 23.6832C24.4058 23.6832 24.0291 23.3327 24.0291 22.9018C24.0291 22.471 24.4058 22.1206 24.8689 22.1206C25.332 22.1206 25.7088 22.471 25.7088 22.9018C25.7088 23.3327 25.332 23.6832 24.8689 23.6832ZM30.6501 26.7367C30.187 26.7367 29.8102 26.3862 29.8102 25.9553C29.8102 25.5245 30.187 25.174 30.6501 25.174C31.1132 25.174 31.49 25.5245 31.49 25.9553C31.49 26.3862 31.1131 26.7367 30.6501 26.7367Z" fill="white"/>
<path d="M44.1723 39.4504H39.7643H15.7547H10.7817C10.4939 39.4504 10.2598 39.2325 10.2598 38.9648V14.7915C10.2598 14.5237 10.4939 14.3059 10.7817 14.3059H13.7511C14.0989 14.3059 14.381 14.0436 14.381 13.72C14.381 13.3963 14.0989 13.134 13.7511 13.134H10.7817C9.79928 13.134 9 13.8775 9 14.7915V38.9648C9 39.8787 9.79928 40.6222 10.7817 40.6222H15.1248V41.9118C15.1248 42.6464 15.7673 43.244 16.557 43.244H22.862L19.894 48.6345C19.7355 48.9226 19.8578 49.2756 20.1675 49.4232C20.2594 49.467 20.3575 49.4877 20.4541 49.4877C20.683 49.4877 20.9038 49.3713 21.0152 49.1687L24.2774 43.244H31.2416L34.5038 49.1687C34.6153 49.3713 34.836 49.4877 35.0649 49.4877C35.1616 49.4877 35.2596 49.4668 35.3515 49.4232C35.6612 49.2756 35.7836 48.9226 35.625 48.6345L32.657 43.244H38.962C39.7517 43.244 40.3942 42.6465 40.3942 41.9118V40.6222H44.1723C44.5202 40.6222 44.8022 40.36 44.8022 40.0363C44.8022 39.7126 44.5202 39.4504 44.1723 39.4504ZM39.1344 41.9118C39.1344 42.0002 39.0571 42.0722 38.962 42.0722H16.557C16.4619 42.0722 16.3846 42.0002 16.3846 41.9118V40.6222H39.1344V41.9118Z" fill="white"/>
<path d="M16.2706 14.3058H24.8935H30.6255H44.7372C45.025 14.3058 45.2592 14.5236 45.2592 14.7913V20.3625C45.2592 20.6862 45.5412 20.9485 45.8891 20.9485C46.2369 20.9485 46.5189 20.6862 46.5189 20.3625V14.7913C46.5189 13.8774 45.7197 13.1339 44.7372 13.1339H31.2555V11.9822C31.2555 11.1717 30.5465 10.5122 29.6751 10.5122H25.8439C24.9726 10.5122 24.2636 11.1717 24.2636 11.9822V13.1339H16.2706C15.9228 13.1339 15.6407 13.3962 15.6407 13.7199C15.6407 14.0435 15.9228 14.3058 16.2706 14.3058ZM25.5234 11.9822C25.5234 11.8178 25.6671 11.6841 25.8439 11.6841H29.6751C29.8518 11.6841 29.9957 11.8178 29.9957 11.9822V13.1339H25.5234V11.9822H25.5234Z" fill="white"/>
<path d="M17.8101 30.9043C17.4623 30.9043 17.1802 31.1666 17.1802 31.4902V36.6677C17.1802 36.9914 17.4623 37.2537 17.8101 37.2537H20.3655C20.7134 37.2537 20.9954 36.9914 20.9954 36.6677V31.4902C20.9954 31.1666 20.7134 30.9043 20.3655 30.9043H17.8101ZM19.7356 36.0819H18.44V32.0763H19.7356V36.0819Z" fill="white"/>
<path d="M23.5912 27.9099C23.2433 27.9099 22.9613 28.1722 22.9613 28.4958V36.6678C22.9613 36.9915 23.2433 37.2537 23.5912 37.2537H26.1466C26.4944 37.2537 26.7765 36.9915 26.7765 36.6678V28.4958C26.7765 28.1722 26.4944 27.9099 26.1466 27.9099H23.5912ZM25.5168 36.0819H24.2212V29.0818H25.5168V36.0819Z" fill="white"/>
<path d="M29.3723 30.9043C29.0245 30.9043 28.7424 31.1666 28.7424 31.4902V36.6677C28.7424 36.9914 29.0245 37.2537 29.3723 37.2537H31.9277C32.2756 37.2537 32.5576 36.9914 32.5576 36.6677V31.4902C32.5576 31.1666 32.2756 30.9043 31.9277 30.9043H29.3723ZM31.2978 36.0819H30.0022V32.0763H31.2978V36.0819Z" fill="white"/>
<path d="M35.1535 34.3618C34.8056 34.3618 34.5236 34.6241 34.5236 34.9478V36.6678C34.5236 36.9915 34.8056 37.2538 35.1535 37.2538H37.7089C38.0568 37.2538 38.3388 36.9915 38.3388 36.6678C38.3388 36.3442 38.0568 36.0819 37.7089 36.0819H35.7834V34.9478C35.7834 34.6241 35.5014 34.3618 35.1535 34.3618Z" fill="white"/>
<path d="M51.6787 40.0013L48.0651 34.179C48.9807 33.2712 49.6473 32.1621 50.0034 30.9258C50.5726 28.95 50.2805 26.8861 49.181 25.1146C46.9112 21.4573 41.8662 20.2001 37.9349 22.3114C34.0035 24.4227 32.6517 29.1158 34.9215 32.7729C36.021 34.5444 37.7964 35.8116 39.9204 36.3411C40.6298 36.5179 41.3494 36.6054 42.0645 36.6054C42.6896 36.6054 43.311 36.5385 43.9187 36.4061L47.5315 42.2286C47.9744 42.9425 48.7808 43.3419 49.609 43.3419C50.0149 43.3419 50.4261 43.2458 50.8023 43.044C51.541 42.6473 52 41.9077 52 41.1138C52 40.7248 51.889 40.3402 51.6787 40.0013ZM40.2464 35.2092C38.4474 34.7608 36.9437 33.6874 36.0124 32.1869C34.09 29.0894 35.2349 25.1146 38.5647 23.3262C39.6601 22.7379 40.8571 22.4586 42.0394 22.4586C44.451 22.4586 46.7999 23.6221 48.0899 25.7005C49.0211 27.201 49.2686 28.949 48.7865 30.6226C48.3044 32.2961 47.1506 33.6948 45.5375 34.5611C43.9246 35.4275 42.0456 35.6575 40.2464 35.2092ZM50.1726 42.029C49.6307 42.3201 48.9353 42.1468 48.6226 41.6429L45.1467 36.041C45.4951 35.9087 45.8362 35.754 46.1676 35.5761C46.4993 35.3979 46.8134 35.1997 47.1107 34.985L50.5877 40.5871C50.6875 40.7481 50.7402 40.9303 50.7402 41.1139C50.7402 41.4903 50.5227 41.841 50.1726 42.029Z" fill="white"/>
<path d="M47.7623 30.5945C48.207 29.262 48.1011 27.8355 47.4641 26.5777C47.3158 26.2848 46.9405 26.1594 46.6259 26.2973C46.3111 26.4352 46.1762 26.7843 46.3245 27.077C46.827 28.0692 46.9104 29.1949 46.5593 30.247C46.2062 31.3048 45.4434 32.1925 44.4115 32.7467C43.3196 33.3333 42.0473 33.4889 40.8294 33.1854C39.6115 32.8818 38.5934 32.1552 37.963 31.1394C36.6615 29.0424 37.4367 26.3515 39.6909 25.1408C41.3391 24.2557 43.3846 24.374 44.9022 25.4421C45.1797 25.6374 45.5747 25.5866 45.7846 25.3284C45.9945 25.0704 45.9398 24.7029 45.6623 24.5077C43.7398 23.1545 41.1486 23.0047 39.061 24.1259C37.6776 24.8688 36.688 26.0685 36.2745 27.5038C35.8611 28.9391 36.0733 30.4384 36.872 31.7252C37.6707 33.0122 38.9603 33.9327 40.5033 34.3173C41.0186 34.4458 41.5414 34.5093 42.0609 34.5093C43.0971 34.5093 44.1199 34.2565 45.0413 33.7616C46.3487 33.0595 47.315 31.9348 47.7623 30.5945Z" fill="white"/>
<defs>
<linearGradient id="paint0_linear_152_2523" x1="30" y1="0" x2="30" y2="60" gradientUnits="userSpaceOnUse">
<stop stop-color="#C18EEA"/>
<stop offset="1" stop-color="#A568D6"/>
</linearGradient>
</defs>
</svg>
